<svg width="20" height="21" viewBox="0 0 20 21" fill="none" xmlns="http://www.w3.org/2000/svg">
<path fill-rule="evenodd" clip-rule="evenodd" d="M10 18.5C14.4183 18.5 18 14.9183 18 10.5C18 6.08172 14.4183 2.5 10 2.5C5.58172 2.5 2 6.08172 2 10.5C2 14.9183 5.58172 18.5 10 18.5ZM9.5547 7.66795C9.24784 7.46338 8.8533 7.44431 8.52814 7.61833C8.20298 7.79235 8 8.13121 8 8.5V12.5C8 12.8688 8.20298 13.2077 8.52814 13.3817C8.8533 13.5557 9.24784 13.5366 9.5547 13.3321L12.5547 11.3321C12.8329 11.1466 13 10.8344 13 10.5C13 10.1656 12.8329 9.85342 12.5547 9.66795L9.5547 7.66795Z" fill="white"/>
</svg>
